# xmcd
#
# Track frame offsets:
#	150
#	23160
#	41970
#	62866
#	76725
#	95352
#	108278
#	128138
#	155280
#	176551
#	210093
#
# Disc length: 2905 seconds
#
# Revision: 1
# Processed by: cddbd v1.5.1PL0 Copyright (c) Steve Scherf et al.
# Submitted via: EasyCDDAExtractor 7.0.4.1
#
DISCID=820b570b
DTITLE=Bounty Hunter - Gone Tomorrow
DYEAR=1999
DGENRE=Country
TTITLE0=Southbound
TTITLE1=What Goes Around Comes Around
TTITLE2=I Ain't Drunk
TTITLE3=LIttle Sister
TTITLE4=Sky is Cryin'
TTITLE5=Hot LIttle Mama
TTITLE6=World We Live In
TTITLE7=Mustang Sally
TTITLE8=Storm Clouds
TTITLE9=Dreams I'll Never See
TTITLE10=Three Carnations by John Morris
EXTD=
EXTT0=
EXTT1=
EXTT2=
EXTT3=
EXTT4=
EXTT5=
EXTT6=
EXTT7=
EXTT8=
EXTT9=
EXTT10=
PLAYORDER=
